<svg width="64" height="64" viewBox="0 0 64 64" fill="none" xmlns="http://www.w3.org/2000/svg">
<rect width="64" height="64" rx="8" fill="#FFAF1E"/>
<path fill-rule="evenodd" clip-rule="evenodd" d="M54 32.4C54 36.8 45.2 47.8 32 47.8C18.8 47.8 10 36.8 10 32.4C10 28 18.8 17 32 17C45.2 17 54 28 54 32.4ZM43 32.4C43 38.4751 38.0751 43.4 32 43.4C25.9249 43.4 21 38.4751 21 32.4C21 26.3249 25.9249 21.4 32 21.4C38.0751 21.4 43 26.3249 43 32.4ZM32 39C35.6451 39 38.6 36.0451 38.6 32.4C38.6 31.3811 38.3691 30.4161 37.9568 29.5545C37.5586 29.9533 37.0081 30.2001 36.3999 30.2001C35.1849 30.2001 34.1999 29.2151 34.1999 28.0001C34.1999 27.3919 34.4467 26.8414 34.8455 26.4432C33.9839 26.0309 33.0189 25.8 32 25.8C28.3549 25.8 25.4 28.7549 25.4 32.4C25.4 36.0451 28.3549 39 32 39Z" fill="#161313"/>
</svg>
