<svg xmlns="http://www.w3.org/2000/svg" viewBox="0 0 24 24"><path d="M6.793 13.144a.22.22 0 0 1 .414 0l.95 2.568a.22.22 0 0 0 .13.13l2.569.951a.22.22 0 0 1 0 .414l-2.568.95a.22.22 0 0 0-.13.13l-.95 2.569a.22.22 0 0 1-.415 0l-.95-2.568a.22.22 0 0 0-.13-.13l-2.569-.951a.22.22 0 0 1 0-.414l2.568-.95a.22.22 0 0 0 .13-.13zm0-10a.22.22 0 0 1 .414 0l.95 2.568a.22.22 0 0 0 .13.13l2.569.951a.22.22 0 0 1 0 .414l-2.568.95a.22.22 0 0 0-.13.13l-.95 2.569a.22.22 0 0 1-.415 0l-.95-2.568a.22.22 0 0 0-.13-.13l-2.569-.95a.22.22 0 0 1 0-.415l2.568-.95a.22.22 0 0 0 .13-.13zm10 10a.22.22 0 0 1 .414 0l.95 2.568a.22.22 0 0 0 .13.13l2.569.951a.22.22 0 0 1 0 .414l-2.568.95a.22.22 0 0 0-.13.13l-.951 2.569a.22.22 0 0 1-.414 0l-.95-2.568a.22.22 0 0 0-.13-.13l-2.569-.951a.22.22 0 0 1 0-.414l2.568-.95a.22.22 0 0 0 .13-.13zm0-10a.22.22 0 0 1 .414 0l.95 2.568a.22.22 0 0 0 .13.13l2.569.951a.22.22 0 0 1 0 .414l-2.568.95a.22.22 0 0 0-.13.13l-.951 2.569a.22.22 0 0 1-.414 0l-.95-2.568a.22.22 0 0 0-.13-.13l-2.569-.95a.22.22 0 0 1 0-.415l2.568-.95a.22.22 0 0 0 .13-.13z"/></svg>