<svg xmlns="http://www.w3.org/2000/svg" viewBox="0 0 24 24"><path fill-rule="evenodd" d="M11.584 1.624a.5.5 0 0 1 .832 0l1.066 1.599a.5.5 0 0 1-.416.777h-2.132a.5.5 0 0 1-.416-.777zM6 12a6 6 0 1 1 12 0 6 6 0 0 1-12 0m4.934 8a.5.5 0 0 0-.416.777l1.066 1.599a.5.5 0 0 0 .832 0l1.066-1.599a.5.5 0 0 0-.416-.777zm11.442-8.416a.5.5 0 0 1 0 .832l-1.599 1.066a.5.5 0 0 1-.777-.416v-2.132a.5.5 0 0 1 .777-.416zM4 10.934a.5.5 0 0 0-.777-.416l-1.599 1.066a.5.5 0 0 0 0 .832l1.599 1.066A.5.5 0 0 0 4 13.066zm15.631 8.109a.5.5 0 0 1-.588.588l-1.884-.377a.5.5 0 0 1-.256-.844l1.508-1.507a.5.5 0 0 1 .843.256zM7.097 5.59a.5.5 0 0 0-.256-.844l-1.884-.377a.5.5 0 0 0-.588.588l.377 1.884a.5.5 0 0 0 .844.256zm-2.14 14.04a.5.5 0 0 1-.588-.588l.377-1.884a.5.5 0 0 1 .844-.256l1.507 1.507a.5.5 0 0 1-.256.844zM18.41 7.097a.5.5 0 0 0 .844-.256l.377-1.884a.5.5 0 0 0-.588-.588l-1.884.377a.5.5 0 0 0-.256.844z" clip-rule="evenodd"/></svg>