<svg width="24" height="24" viewBox="0 0 24 24" fill="none" xmlns="http://www.w3.org/2000/svg">
<g id="eye-disabled">
<path id="Subtract" fill-rule="evenodd" clip-rule="evenodd" d="M16.7679 3.20578C17.0441 2.72749 17.6557 2.56361 18.134 2.83975C18.6123 3.1159 18.7761 3.72749 18.5 4.20578L17.2524 6.36662L15.8453 8.80389L14.7252 10.7439L12.2751 14.9876L11.1544 16.9288L10.0608 18.8228L9.5 19.7942C9.22386 20.2725 8.61226 20.4364 8.13397 20.1603C7.65568 19.8841 7.4918 19.2725 7.76795 18.7942L8.07843 18.2565C4.32076 16.7874 2 13.5234 2 12C2 10 6 5 12 5C13.2258 5 14.3682 5.2087 15.41 5.55788L16.7679 3.20578ZM12.2699 18.9966C18.1197 18.85 22 13.9699 22 12C22 10.9388 20.8739 9.03302 18.9204 7.47768L16.8965 10.9831C16.9644 11.3114 17 11.6516 17 12C17 14.214 15.561 16.0919 13.5673 16.7494L12.2699 18.9966ZM12 7C12.8153 7 13.5849 7.19512 14.2649 7.54119L13.2623 9.27771C12.8786 9.09949 12.4509 9 12 9C10.3431 9 9 10.3431 9 12C9 13.0143 9.50332 13.9109 10.2738 14.4539L9.27125 16.1904C7.9038 15.2981 7 13.7546 7 12C7 9.23858 9.23858 7 12 7Z" fill="black"/>
</g>
</svg>
