<svg width="24" height="24" viewBox="0 0 24 24" fill="none" xmlns="http://www.w3.org/2000/svg">
<g id="flash">
<path id="flash_2" d="M6.79295 13.1442C6.86407 12.9519 7.13593 12.9519 7.20705 13.1442L8.15733 15.7122C8.17969 15.7727 8.22733 15.8203 8.28776 15.8427L10.8558 16.793C11.0481 16.8641 11.0481 17.1359 10.8558 17.207L8.28776 18.1573C8.22733 18.1797 8.17969 18.2273 8.15733 18.2878L7.20705 20.8558C7.13593 21.0481 6.86407 21.0481 6.79295 20.8558L5.84267 18.2878C5.82031 18.2273 5.77267 18.1797 5.71224 18.1573L3.14415 17.207C2.95195 17.1359 2.95195 16.8641 3.14415 16.793L5.71224 15.8427C5.77267 15.8203 5.82031 15.7727 5.84267 15.7122L6.79295 13.1442Z" fill="black"/>
<path id="flash_3" d="M6.79295 3.14415C6.86407 2.95195 7.13593 2.95195 7.20705 3.14415L8.15733 5.71224C8.17969 5.77267 8.22733 5.82031 8.28776 5.84267L10.8558 6.79295C11.0481 6.86407 11.0481 7.13593 10.8558 7.20705L8.28776 8.15733C8.22733 8.17969 8.17969 8.22733 8.15733 8.28776L7.20705 10.8558C7.13593 11.0481 6.86407 11.0481 6.79295 10.8558L5.84267 8.28776C5.82031 8.22733 5.77267 8.17969 5.71224 8.15733L3.14415 7.20705C2.95195 7.13593 2.95195 6.86407 3.14415 6.79295L5.71224 5.84267C5.77267 5.82031 5.82031 5.77267 5.84267 5.71224L6.79295 3.14415Z" fill="black"/>
<path id="flash_4" d="M16.793 13.1442C16.8641 12.9519 17.1359 12.9519 17.207 13.1442L18.1573 15.7122C18.1797 15.7727 18.2273 15.8203 18.2878 15.8427L20.8558 16.793C21.0481 16.8641 21.0481 17.1359 20.8558 17.207L18.2878 18.1573C18.2273 18.1797 18.1797 18.2273 18.1573 18.2878L17.207 20.8558C17.1359 21.0481 16.8641 21.0481 16.793 20.8558L15.8427 18.2878C15.8203 18.2273 15.7727 18.1797 15.7122 18.1573L13.1442 17.207C12.9519 17.1359 12.9519 16.8641 13.1442 16.793L15.7122 15.8427C15.7727 15.8203 15.8203 15.7727 15.8427 15.7122L16.793 13.1442Z" fill="black"/>
<path id="flash_5" d="M16.793 3.14415C16.8641 2.95195 17.1359 2.95195 17.207 3.14415L18.1573 5.71224C18.1797 5.77267 18.2273 5.82031 18.2878 5.84267L20.8558 6.79295C21.0481 6.86407 21.0481 7.13593 20.8558 7.20705L18.2878 8.15733C18.2273 8.17969 18.1797 8.22733 18.1573 8.28776L17.207 10.8558C17.1359 11.0481 16.8641 11.0481 16.793 10.8558L15.8427 8.28776C15.8203 8.22733 15.7727 8.17969 15.7122 8.15733L13.1442 7.20705C12.9519 7.13593 12.9519 6.86407 13.1442 6.79295L15.7122 5.84267C15.7727 5.82031 15.8203 5.77267 15.8427 5.71224L16.793 3.14415Z" fill="black"/>
</g>
</svg>
