<svg width="24" height="24" viewBox="0 0 24 24" fill="none" xmlns="http://www.w3.org/2000/svg">
<g id="refresh">
<path id="refresh_2" fill-rule="evenodd" clip-rule="evenodd" d="M20.7282 10.361C20.7418 10.381 20.7547 10.4017 20.767 10.4229L22.5454 13.5032C22.8216 13.9815 22.6577 14.5931 22.1794 14.8693C21.7011 15.1454 21.0895 14.9815 20.8134 14.5032L20.2144 13.4657C20.0214 14.5344 19.6105 15.5573 19.0016 16.4685C18.1285 17.7753 16.8875 18.7937 15.4355 19.3952C13.9836 19.9966 12.3859 20.1539 10.8445 19.8473C9.30309 19.5407 7.88723 18.7839 6.77595 17.6727C6.38542 17.2821 6.38542 16.649 6.77594 16.2584C7.16647 15.8679 7.79963 15.8679 8.19016 16.2584C9.02173 17.09 10.0812 17.6563 11.2347 17.8858C12.3881 18.1152 13.5836 17.9974 14.6702 17.5474C15.7567 17.0973 16.6853 16.3352 17.3387 15.3574C17.8458 14.5984 18.1694 13.7359 18.2889 12.8379L17.2469 13.4394C16.7686 13.7156 16.157 13.5517 15.8809 13.0734C15.6047 12.5951 15.7686 11.9835 16.2469 11.7074L19.3272 9.92895C19.8055 9.65281 20.4171 9.81668 20.6933 10.295C20.7058 10.3167 20.7175 10.3388 20.7282 10.361ZM8.16457 9.9266C8.44071 10.4049 8.27684 11.0165 7.79854 11.2926L4.7182 13.0711C4.23991 13.3472 3.62832 13.1833 3.35217 12.705C3.33961 12.6833 3.32796 12.6613 3.31721 12.639C3.30366 12.619 3.29073 12.5984 3.27846 12.5771L1.50002 9.49677C1.22388 9.01848 1.38776 8.40689 1.86605 8.13075C2.34434 7.8546 2.95593 8.01848 3.23207 8.49677L3.83109 9.5343C4.02404 8.46564 4.43495 7.44275 5.04383 6.53149C5.91696 5.22476 7.15797 4.20629 8.60993 3.60487C10.0619 3.00344 11.6596 2.84609 13.201 3.15269C14.7424 3.45929 16.1582 4.21608 17.2695 5.32736C17.66 5.71789 17.66 6.35105 17.2695 6.74158C16.879 7.1321 16.2458 7.1321 15.8553 6.74158C15.0237 5.91 13.9642 5.34369 12.8108 5.11426C11.6574 4.88483 10.4618 5.00258 9.37529 5.45263C8.28879 5.90267 7.36013 6.6648 6.70677 7.64263C6.19962 8.40163 5.87601 9.26414 5.75657 10.1622L6.79854 9.56058C7.27684 9.28443 7.88843 9.44831 8.16457 9.9266Z" fill="black"/>
</g>
</svg>
