<svg width="24" height="24" viewBox="0 0 24 24" fill="none" xmlns="http://www.w3.org/2000/svg">
<g id="sora-flash">
<path id="sora" d="M11.9836 21C11.8442 20.9999 11.7077 20.9611 11.5891 20.8879C11.4705 20.8148 11.3745 20.7101 11.3118 20.5857L9.67633 17.3213C9.02211 16.0156 7.96202 14.9572 6.65518 14.3051L3.38216 12.6719C2.87261 12.417 2.87261 11.5851 3.38216 11.3306L6.65518 9.69738C7.96202 9.0453 9.02211 7.98693 9.67633 6.68116L11.3118 3.41681C11.3739 3.29165 11.4697 3.18631 11.5884 3.11267C11.7072 3.03902 11.8441 3 11.9838 3C12.1235 3 12.2605 3.03902 12.3792 3.11267C12.4979 3.18631 12.5937 3.29165 12.6558 3.41681L14.2913 6.68116C14.9455 7.98694 16.0056 9.0453 17.3125 9.69738L20.5855 11.3306C20.71 11.3928 20.8148 11.4886 20.888 11.607C20.9612 11.7255 21 11.862 21 12.0012C21 12.1405 20.9612 12.277 20.888 12.3955C20.8148 12.5139 20.71 12.6096 20.5855 12.6719L17.3129 14.3049C16.0058 14.9571 14.9455 16.0158 14.2914 17.3219L12.6567 20.5857C12.5939 20.7103 12.4977 20.8151 12.3789 20.8882C12.26 20.9614 12.1232 21.0001 11.9836 21Z" fill="black"/>
<path id="sora_2" d="M18.9964 7C18.9654 6.99997 18.935 6.99135 18.9087 6.97509C18.8823 6.95884 18.861 6.93559 18.8471 6.90793L18.4836 6.18252C18.3382 5.89235 18.1027 5.65715 17.8123 5.51225L17.0849 5.14932C16.9717 5.09266 16.9717 4.90779 17.0849 4.85123L17.8123 4.48831C18.1027 4.3434 18.3382 4.10821 18.4836 3.81804L18.8471 3.09262C18.8609 3.06481 18.8822 3.0414 18.9085 3.02504C18.9349 3.00867 18.9654 3 18.9964 3C19.0275 3 19.0579 3.00867 19.0843 3.02504C19.1107 3.0414 19.1319 3.06481 19.1457 3.09262L19.5092 3.81804C19.6546 4.10821 19.8901 4.3434 20.1805 4.48831L20.9079 4.85123C20.9356 4.86508 20.9588 4.88635 20.9751 4.91268C20.9914 4.939 21 4.96933 21 5.00028C21 5.03122 20.9914 5.06155 20.9751 5.08788C20.9588 5.1142 20.9356 5.13548 20.9079 5.14932L20.1807 5.51219C19.8902 5.65713 19.6546 5.8924 19.5092 6.18265L19.1459 6.90793C19.132 6.93563 19.1106 6.9589 19.0842 6.97516C19.0578 6.99142 19.0274 7.00002 18.9964 7Z" fill="black"/>
<path id="sora_3" d="M4.99635 21C4.96538 21 4.93503 20.9913 4.90868 20.9751C4.88232 20.9588 4.861 20.9356 4.84708 20.9079L4.48363 20.1825C4.33825 19.8923 4.10267 19.6572 3.81226 19.5122L3.08493 19.1493C2.97169 19.0927 2.97169 18.9078 3.08493 18.8512L3.81226 18.4883C4.10267 18.3434 4.33825 18.1082 4.48363 17.818L4.84708 17.0926C4.86087 17.0648 4.88215 17.0414 4.90854 17.025C4.93492 17.0087 4.96535 17 4.9964 17C5.02745 17 5.05789 17.0087 5.08427 17.025C5.11065 17.0414 5.13194 17.0648 5.14573 17.0926L5.50918 17.818C5.65456 18.1082 5.89014 18.3434 6.18055 18.4883L6.90788 18.8512C6.93556 18.8651 6.95884 18.8864 6.97511 18.9127C6.99138 18.939 7 18.9693 7 19.0003C7 19.0312 6.99138 19.0616 6.97511 19.0879C6.95884 19.1142 6.93556 19.1355 6.90788 19.1493L6.18065 19.5122C5.89018 19.6571 5.65456 19.8924 5.50919 20.1827L5.14594 20.9079C5.13199 20.9356 5.11061 20.9589 5.08419 20.9752C5.05778 20.9914 5.02737 21 4.99635 21Z" fill="black"/>
</g>
</svg>
