<svg width="24" height="24" viewBox="0 0 24 24" fill="none" xmlns="http://www.w3.org/2000/svg">
<g id="sun">
<path id="sun_2" fill-rule="evenodd" clip-rule="evenodd" d="M11.584 1.62404C11.7819 1.32717 12.2181 1.32717 12.416 1.62404L13.4818 3.22265C13.7033 3.55493 13.4651 4 13.0658 4H10.9343C10.5349 4 10.2967 3.55493 10.5182 3.22265L11.584 1.62404ZM6.00001 12C6.00001 8.68629 8.6863 6 12 6C15.3137 6 18 8.68629 18 12C18 15.3137 15.3137 18 12 18C8.6863 18 6.00001 15.3137 6.00001 12ZM10.9343 20C10.5349 20 10.2967 20.4451 10.5182 20.7774L11.584 22.376C11.7819 22.6728 12.2181 22.6728 12.416 22.376L13.4818 20.7774C13.7033 20.4451 13.4651 20 13.0658 20H10.9343ZM22.376 11.584C22.6728 11.7819 22.6728 12.2181 22.376 12.416L20.7774 13.4818C20.4451 13.7033 20 13.4651 20 13.0657V10.9343C20 10.5349 20.4451 10.2967 20.7774 10.5182L22.376 11.584ZM4.00001 10.9343C4.00001 10.5349 3.55494 10.2967 3.22266 10.5182L1.62405 11.584C1.32718 11.7819 1.32718 12.2181 1.62405 12.416L3.22266 13.4818C3.55494 13.7033 4.00001 13.4651 4.00001 13.0657L4.00001 10.9343ZM19.6311 19.0427C19.7011 19.3926 19.3926 19.7011 19.0427 19.6311L17.1588 19.2543C16.7672 19.176 16.6209 18.6928 16.9033 18.4104L18.4105 16.9033C18.6928 16.6209 19.176 16.7672 19.2543 17.1588L19.6311 19.0427ZM7.09675 5.58956C7.37914 5.30718 7.23285 4.82403 6.84126 4.74571L4.95728 4.36892C4.60742 4.29894 4.29896 4.6074 4.36893 4.95726L4.74572 6.84125C4.82404 7.23284 5.30719 7.37912 5.58957 7.09674L7.09675 5.58956ZM4.95728 19.6311C4.60742 19.7011 4.29896 19.3926 4.36893 19.0427L4.74573 17.1588C4.82405 16.7672 5.30719 16.6209 5.58957 16.9033L7.09676 18.4104C7.37914 18.6928 7.23285 19.176 6.84126 19.2543L4.95728 19.6311ZM18.4104 7.09675C18.6928 7.37913 19.176 7.23284 19.2543 6.84125L19.6311 4.95727C19.7011 4.60741 19.3926 4.29895 19.0427 4.36892L17.1588 4.74572C16.7672 4.82403 16.6209 5.30718 16.9033 5.58956L18.4104 7.09675Z" fill="black"/>
</g>
</svg>
