<svg width="24" height="24" viewBox="0 0 24 24" fill="none" xmlns="http://www.w3.org/2000/svg">
<g id="thebe">
<path id="Union" fill-rule="evenodd" clip-rule="evenodd" d="M5 2H19C20.6569 2 22 3.34315 22 5V19C22 20.6569 20.6569 22 19 22H5C3.34315 22 2 20.6569 2 19V5C2 3.34315 3.34315 2 5 2ZM5 4C4.44772 4 4 4.44772 4 5V5.37257C4.3983 5.51339 4.79327 5.66487 5.18446 5.8269C6.89966 6.53737 8.52254 7.44273 10.0222 8.52237C10.6055 8.18992 11.2806 8 12 8C14.2091 8 16 9.79086 16 12C16 12.7194 15.8101 13.3945 15.4776 13.9778C16.5573 15.4775 17.4627 17.1004 18.1732 18.8156C18.3352 19.2068 18.4867 19.6017 18.6275 20H19C19.5523 20 20 19.5523 20 19V11.0313C19.0514 9.66501 17.9807 8.38275 16.799 7.20102C15.6173 6.01928 14.335 4.94858 12.9687 4H5ZM16.2614 4C16.9368 4.56565 17.5882 5.16173 18.2132 5.78681C18.8383 6.41187 19.4344 7.06318 20 7.73862V5C20 4.44772 19.5523 4 19 4H16.2614ZM8.22878 20H5C4.44772 20 4 19.5523 4 19V15.7712C4.82761 16.3343 5.60253 16.9751 6.31374 17.6863C7.02494 18.3975 7.66574 19.1724 8.22878 20ZM10.5885 20C9.80365 18.6406 8.84265 17.3868 7.72796 16.2721C6.61325 15.1574 5.35939 14.1964 4 13.4115V7.50609C4.1402 7.56082 4.27991 7.61701 4.41909 7.67466C5.8832 8.28112 7.27393 9.0425 8.56841 9.94353C8.20752 10.5445 8 11.248 8 12C8 14.2091 9.79086 16 12 16C12.752 16 13.4556 15.7925 14.0565 15.4316C14.9575 16.7261 15.7189 18.1168 16.3254 19.581C16.383 19.7201 16.4392 19.8598 16.494 20H10.5885ZM12 14C13.1046 14 14 13.1046 14 12C14 10.8954 13.1046 10 12 10C10.8954 10 10 10.8954 10 12C10 13.1046 10.8954 14 12 14Z" fill="black"/>
</g>
</svg>
