<svg width="24" height="24" viewBox="0 0 24 24" fill="none" xmlns="http://www.w3.org/2000/svg">
<g id="x-apple">
<path id="Vector" d="M19.489 9.47775C19.375 9.56326 17.3625 10.6597 17.3625 13.0976C17.3625 15.9175 19.9234 16.9151 20 16.9398C19.9882 17.0006 19.5932 18.306 18.6498 19.6362C17.8086 20.8067 16.9301 21.9753 15.5937 21.9753C14.2572 21.9753 13.9133 21.2247 12.3705 21.2247C10.867 21.2247 10.3324 22 9.10994 22C7.88748 22 7.03452 20.9169 6.0538 19.5868C4.91782 18.0248 4 15.5983 4 13.2952C4 9.60126 6.48422 7.64216 8.92912 7.64216C10.2282 7.64216 11.3111 8.46685 12.1268 8.46685C12.9031 8.46685 14.1137 7.59276 15.5917 7.59276C16.1518 7.59276 18.1644 7.64216 19.489 9.47775ZM14.8901 6.0289C15.5013 5.32773 15.9337 4.35484 15.9337 3.38194C15.9337 3.24702 15.9219 3.11021 15.8963 3C14.9019 3.0361 13.7187 3.64036 13.0053 4.44034C12.4452 5.05601 11.9224 6.0289 11.9224 7.0151C11.9224 7.16332 11.9479 7.31153 11.9597 7.35904C12.0226 7.37044 12.1248 7.38374 12.227 7.38374C13.1193 7.38374 14.2415 6.80608 14.8901 6.0289Z" fill="black"/>
</g>
</svg>
